<svg width="32" height="32" viewBox="0 0 32 32" fill="none" xmlns="http://www.w3.org/2000/svg">
  <!-- Background circle -->
  <circle cx="16" cy="16" r="16" fill="#FEF3C7"/>
  
  <!-- Lemon slice main body -->
  <path d="M16 4C23.732 4 30 10.268 30 18C30 25.732 23.732 32 16 32C8.268 32 2 25.732 2 18C2 10.268 8.268 4 16 4Z" fill="#FDE047"/>
  
  <!-- Lemon slice segments -->
  <path d="M16 6L16 30C22.627 30 28 24.627 28 18C28 11.373 22.627 6 16 6Z" fill="#FACC15"/>
  <path d="M16 8L16 28C21.523 28 26 23.523 26 18C26 12.477 21.523 8 16 8Z" fill="#EAB308"/>
  
  <!-- Lemon slice dividers -->
  <line x1="16" y1="6" x2="24" y2="14" stroke="#D97706" stroke-width="1" opacity="0.6"/>
  <line x1="16" y1="6" x2="24" y2="22" stroke="#D97706" stroke-width="1" opacity="0.6"/>
  <line x1="16" y1="6" x2="20" y2="26" stroke="#D97706" stroke-width="1" opacity="0.6"/>
  <line x1="16" y1="6" x2="12" y2="26" stroke="#D97706" stroke-width="1" opacity="0.6"/>
  <line x1="16" y1="6" x2="8" y2="22" stroke="#D97706" stroke-width="1" opacity="0.6"/>
  <line x1="16" y1="6" x2="8" y2="14" stroke="#D97706" stroke-width="1" opacity="0.6"/>
  
  <!-- Film strip elements for movie theme -->
  <rect x="6" y="14" width="2" height="4" fill="#DC2626" rx="0.5"/>
  <rect x="24" y="14" width="2" height="4" fill="#DC2626" rx="0.5"/>
  
  <!-- Small decorative dots -->
  <circle cx="12" cy="12" r="1" fill="#F59E0B" opacity="0.8"/>
  <circle cx="20" cy="12" r="1" fill="#F59E0B" opacity="0.8"/>
  <circle cx="14" cy="22" r="1" fill="#F59E0B" opacity="0.8"/>
  <circle cx="18" cy="22" r="1" fill="#F59E0B" opacity="0.8"/>
</svg>
